<svg width="804" height="780" viewBox="0 0 804 780" fill="none" xmlns="http://www.w3.org/2000/svg">
<g clip-path="url(#clip0_517_496)">
<path d="M519 86.5283L560 -2L-28 1.56148V780H728L573 646.19L798 484.906V420.799L519 86.5283Z" fill="url(#paint0_linear_517_496)"/>
<g filter="url(#filter0_d_517_496)">
<path d="M500.5 86.8359L541 0H-62V780H656.5L541.5 640.352L799.5 462.617L797.5 420.977L500.5 86.8359Z" fill="url(#paint1_linear_517_496)"/>
</g>
<g filter="url(#filter1_d_517_496)">
<path d="M353.54 532.08C354.391 532.08 355.08 531.39 355.08 530.54C355.08 529.689 354.391 529 353.54 529C352.689 529 352 529.689 352 530.54C352 531.39 352.689 532.08 353.54 532.08Z" fill="#F8E41C"/>
<path d="M366.12 532.08C366.971 532.08 367.66 531.39 367.66 530.54C367.66 529.689 366.971 529 366.12 529C365.269 529 364.58 529.689 364.58 530.54C364.58 531.39 365.269 532.08 366.12 532.08Z" fill="#F8E41C"/>
<path d="M380.24 530.54C380.24 531.39 379.55 532.08 378.7 532.08C377.85 532.08 377.16 531.39 377.16 530.54C377.16 529.69 377.85 529 378.7 529C379.55 529 380.24 529.69 380.24 530.54Z" fill="#F8E41C"/>
<path d="M391.29 532.08C392.141 532.08 392.83 531.39 392.83 530.54C392.83 529.689 392.141 529 391.29 529C390.439 529 389.75 529.689 389.75 530.54C389.75 531.39 390.439 532.08 391.29 532.08Z" fill="#F8E41C"/>
<path d="M405.41 530.54C405.41 531.39 404.72 532.08 403.87 532.08C403.02 532.08 402.33 531.39 402.33 530.54C402.33 529.69 403.02 529 403.87 529C404.72 529 405.41 529.69 405.41 530.54Z" fill="#F8E41C"/>
<path d="M416.45 532.08C417.301 532.08 417.99 531.39 417.99 530.54C417.99 529.689 417.301 529 416.45 529C415.599 529 414.91 529.689 414.91 530.54C414.91 531.39 415.599 532.08 416.45 532.08Z" fill="#F8E41C"/>
<path d="M355.08 542.66C355.08 543.51 354.39 544.2 353.54 544.2C352.69 544.2 352 543.51 352 542.66C352 541.81 352.69 541.12 353.54 541.12C354.39 541.12 355.08 541.81 355.08 542.66Z" fill="#F8E41C"/>
<path d="M367.66 542.66C367.66 543.51 366.97 544.2 366.12 544.2C365.27 544.2 364.58 543.51 364.58 542.66C364.58 541.81 365.27 541.12 366.12 541.12C366.97 541.12 367.66 541.81 367.66 542.66Z" fill="#F8E41C"/>
<path d="M380.24 542.66C380.24 543.51 379.55 544.2 378.7 544.2C377.85 544.2 377.16 543.51 377.16 542.66C377.16 541.81 377.85 541.12 378.7 541.12C379.55 541.12 380.24 541.81 380.24 542.66Z" fill="#F8E41C"/>
<path d="M392.83 542.66C392.83 543.51 392.14 544.2 391.29 544.2C390.44 544.2 389.75 543.51 389.75 542.66C389.75 541.81 390.44 541.12 391.29 541.12C392.14 541.12 392.83 541.81 392.83 542.66Z" fill="#F8E41C"/>
<path d="M405.41 542.66C405.41 543.51 404.72 544.2 403.87 544.2C403.02 544.2 402.33 543.51 402.33 542.66C402.33 541.81 403.02 541.12 403.87 541.12C404.72 541.12 405.41 541.81 405.41 542.66Z" fill="#F8E41C"/>
<path d="M417.99 542.66C417.99 543.51 417.3 544.2 416.45 544.2C415.6 544.2 414.91 543.51 414.91 542.66C414.91 541.81 415.6 541.12 416.45 541.12C417.3 541.12 417.99 541.81 417.99 542.66Z" fill="#F8E41C"/>
<path d="M355.08 554.78C355.08 555.63 354.39 556.32 353.54 556.32C352.69 556.32 352 555.63 352 554.78C352 553.93 352.69 553.24 353.54 553.24C354.39 553.24 355.08 553.93 355.08 554.78Z" fill="#F8E41C"/>
<path d="M367.66 554.78C367.66 555.63 366.97 556.32 366.12 556.32C365.27 556.32 364.58 555.63 364.58 554.78C364.58 553.93 365.27 553.24 366.12 553.24C366.97 553.24 367.66 553.93 367.66 554.78Z" fill="#F8E41C"/>
<path d="M380.24 554.78C380.24 555.63 379.55 556.32 378.7 556.32C377.85 556.32 377.16 555.63 377.16 554.78C377.16 553.93 377.85 553.24 378.7 553.24C379.55 553.24 380.24 553.93 380.24 554.78Z" fill="#F8E41C"/>
<path d="M392.83 554.78C392.83 555.63 392.14 556.32 391.29 556.32C390.44 556.32 389.75 555.63 389.75 554.78C389.75 553.93 390.44 553.24 391.29 553.24C392.14 553.24 392.83 553.93 392.83 554.78Z" fill="#F8E41C"/>
<path d="M405.41 554.78C405.41 555.63 404.72 556.32 403.87 556.32C403.02 556.32 402.33 555.63 402.33 554.78C402.33 553.93 403.02 553.24 403.87 553.24C404.72 553.24 405.41 553.93 405.41 554.78Z" fill="#F8E41C"/>
<path d="M417.99 554.78C417.99 555.63 417.3 556.32 416.45 556.32C415.6 556.32 414.91 555.63 414.91 554.78C414.91 553.93 415.6 553.24 416.45 553.24C417.3 553.24 417.99 553.93 417.99 554.78Z" fill="#F8E41C"/>
<path d="M353.54 568.44C354.391 568.44 355.08 567.75 355.08 566.9C355.08 566.049 354.391 565.36 353.54 565.36C352.689 565.36 352 566.049 352 566.9C352 567.75 352.689 568.44 353.54 568.44Z" fill="#F8E41C"/>
<path d="M366.12 568.44C366.971 568.44 367.66 567.75 367.66 566.9C367.66 566.049 366.971 565.36 366.12 565.36C365.269 565.36 364.58 566.049 364.58 566.9C364.58 567.75 365.269 568.44 366.12 568.44Z" fill="#F8E41C"/>
<path d="M380.24 566.9C380.24 567.75 379.55 568.44 378.7 568.44C377.85 568.44 377.16 567.75 377.16 566.9C377.16 566.05 377.85 565.36 378.7 565.36C379.55 565.36 380.24 566.05 380.24 566.9Z" fill="#F8E41C"/>
<path d="M391.29 568.44C392.141 568.44 392.83 567.75 392.83 566.9C392.83 566.049 392.141 565.36 391.29 565.36C390.439 565.36 389.75 566.049 389.75 566.9C389.75 567.75 390.439 568.44 391.29 568.44Z" fill="#F8E41C"/>
<path d="M405.41 566.9C405.41 567.75 404.72 568.44 403.87 568.44C403.02 568.44 402.33 567.75 402.33 566.9C402.33 566.05 403.02 565.36 403.87 565.36C404.72 565.36 405.41 566.05 405.41 566.9Z" fill="#F8E41C"/>
<path d="M416.45 568.44C417.301 568.44 417.99 567.75 417.99 566.9C417.99 566.049 417.301 565.36 416.45 565.36C415.599 565.36 414.91 566.049 414.91 566.9C414.91 567.75 415.599 568.44 416.45 568.44Z" fill="#F8E41C"/>
</g>
<g filter="url(#filter2_d_517_496)">
<path d="M-24.3216 688.28L0.0413055 712.643L24.4043 688.28L33.7149 697.591L9.35198 721.954L33.7198 746.321L24.4091 755.632L0.0413055 731.264L-24.3265 755.632L-33.6372 746.321L-9.26937 721.954L-33.6323 697.591L-24.3216 688.28Z" fill="#F8E41C"/>
<path d="M-24.3265 611.326L0.0412865 635.694L24.4091 611.326L33.7149 620.632L9.34711 645L33.7149 669.368L24.4091 678.674L0.0412865 654.306L-24.3265 678.674L-33.6323 669.368L-9.26454 645L-33.6323 620.632L-24.3265 611.326Z" fill="#F8E41C"/>
<path d="M-24.3265 534.368L0.0412865 558.736L24.4091 534.368L33.7149 543.674L9.34711 568.041L33.7149 592.409L24.4091 601.715L0.0412865 577.347L-24.3265 601.715L-33.6323 592.409L-9.26455 568.041L-33.6323 543.674L-24.3265 534.368Z" fill="#F8E41C"/>
</g>
<g filter="url(#filter3_d_517_496)">
<path d="M304.898 16.9818L331.751 -17.6983L326.767 -17.7041L299.913 16.9759L304.898 16.9818Z" fill="#F8E41C"/>
<path d="M318.221 16.9974L345.074 -17.6826L340.089 -17.6885L313.236 16.9916L318.221 16.9974Z" fill="#F8E41C"/>
<path d="M331.543 17.0131L358.397 -17.667L353.412 -17.6729L326.559 17.0072L331.543 17.0131Z" fill="#F8E41C"/>
<path d="M344.866 17.0289L371.719 -17.6512L366.735 -17.657L339.881 17.023L344.866 17.0289Z" fill="#F8E41C"/>
<path d="M358.189 17.0446L385.042 -17.6355L380.057 -17.6414L353.204 17.0387L358.189 17.0446Z" fill="#F8E41C"/>
<path d="M371.515 17.0565L398.368 -17.616L393.38 -17.6257L366.527 17.0544L371.515 17.0565Z" fill="#F8E41C"/>
<path d="M384.838 17.0721L411.691 -17.6003L406.707 -17.6062L379.853 17.0662L384.838 17.0721Z" fill="#F8E41C"/>
<path d="M398.16 17.0875L425.014 -17.5849L420.029 -17.5908L393.176 17.0816L398.16 17.0875Z" fill="#F8E41C"/>
<path d="M411.483 17.1032L438.34 -17.573L433.352 -17.575L406.499 17.0975L411.483 17.1032Z" fill="#F8E41C"/>
<path d="M424.81 17.1229L451.663 -17.5572L446.678 -17.563L419.821 17.1132L424.81 17.1229Z" fill="#F8E41C"/>
<path d="M438.132 17.1383L464.986 -17.5417L460.001 -17.5476L433.148 17.1325L438.132 17.1383Z" fill="#F8E41C"/>
<path d="M451.455 17.1543L478.308 -17.5258L473.324 -17.5317L446.47 17.1484L451.455 17.1543Z" fill="#F8E41C"/>
<path d="M464.778 17.1698L491.631 -17.5103L486.647 -17.5161L459.793 17.1639L464.778 17.1698Z" fill="#F8E41C"/>
<path d="M478.1 17.1854L504.954 -17.4946L499.969 -17.5005L473.116 17.1796L478.1 17.1854Z" fill="#F8E41C"/>
<path d="M491.423 17.2011L518.276 -17.479L513.292 -17.4849L486.438 17.1952L491.423 17.2011Z" fill="#F8E41C"/>
<path d="M504.75 17.2131L531.599 -17.4632L526.615 -17.469L499.761 17.211L504.75 17.2131Z" fill="#F8E41C"/>
</g>
<g filter="url(#filter4_d_517_496)">
<path d="M101.96 305.39H96.1V299.53H93.86V305.39H88V307.63H93.86V313.49H96.1V307.63H101.96V305.39Z" fill="#F8E41C"/>
<path d="M115.35 292.01H109.48V286.15H107.24V292.01H101.38V294.25H107.24V300.11H109.48V294.25H115.35V292.01Z" fill="#F8E41C"/>
<path d="M128.73 278.63H122.87V272.77H120.63V278.63H114.77V280.87H120.63V286.73H122.87V280.87H128.73V278.63Z" fill="#F8E41C"/>
<path d="M142.11 265.24H136.25V259.38H134.01V265.24H128.15V267.48H134.01V273.35H136.25V267.48H142.11V265.24Z" fill="#F8E41C"/>
<path d="M155.49 251.86H149.63V246H147.39V251.86H141.53V254.1H147.39V259.96H149.63V254.1H155.49V251.86Z" fill="#F8E41C"/>
</g>
<mask id="mask0_517_496" style="mask-type:luminance" maskUnits="userSpaceOnUse" x="587" y="436" width="150" height="149">
<path d="M736.26 456.461L608.461 436L588 563.799L715.799 584.261L736.26 456.461Z" fill="white"/>
</mask>
<g mask="url(#mask0_517_496)">
<g filter="url(#filter5_d_517_496)">
<path d="M602.861 527.631L624.234 537.588L626.996 560.997L619.384 566.508L616.686 543.767L616.599 543.094L615.987 542.801L595.225 533.138L602.837 527.628M602.697 526.215L592.852 533.343L615.499 543.869L618.428 568.671L628.274 561.543L625.345 536.741L602.697 526.215Z" fill="#F8E41C"/>
<path d="M623.489 512.697L644.863 522.653L647.648 546.066L640.037 551.577L637.338 528.836L637.251 528.164L636.64 527.871L615.878 518.207L623.489 512.697ZM623.349 511.285L613.504 518.412L636.152 528.938L639.081 553.74L648.926 546.612L645.997 521.81L623.349 511.285Z" fill="#F8E41C"/>
<path d="M644.094 497.758L665.467 507.714L668.229 531.124L660.618 536.635L657.919 513.894L657.832 513.221L657.221 512.928L636.459 503.265L644.07 497.754M643.93 496.342L634.085 503.47L656.733 513.996L659.662 538.798L669.507 531.67L666.578 506.868L643.93 496.342Z" fill="#F8E41C"/>
<path d="M664.719 482.847L686.092 492.803L688.854 516.213L681.242 521.724L678.544 498.983L678.457 498.31L677.845 498.017L657.083 488.354L664.695 482.843M664.555 481.431L654.71 488.559L677.357 499.085L680.286 523.887L690.132 516.759L687.203 491.957L664.555 481.431Z" fill="#F8E41C"/>
<path d="M685.323 467.909L706.697 477.865L709.482 501.278L701.871 506.789L699.173 484.048L699.085 483.376L698.474 483.083L677.712 473.419L685.323 467.909ZM685.184 466.497L675.338 473.624L697.986 484.15L700.915 508.952L710.76 501.824L707.831 477.022L685.184 466.497Z" fill="#F8E41C"/>
<path d="M705.948 452.998L727.321 462.954L730.107 486.367L722.496 491.878L719.797 469.137L719.71 468.465L719.098 468.172L698.336 458.508L705.948 452.998ZM705.808 451.586L695.963 458.713L718.611 469.239L721.54 494.041L731.385 486.913L728.456 462.111L705.808 451.586Z" fill="#F8E41C"/>
</g>
</g>
</g>
<defs>
<filter id="filter0_d_517_496" x="-66" y="0" width="869.5" height="788" filterUnits="userSpaceOnUse" color-interpolation-filters="sRGB">
<feFlood flood-opacity="0" result="BackgroundImageFix"/>
<feColorMatrix in="SourceAlpha" type="matrix" values="0 0 0 0 0 0 0 0 0 0 0 0 0 0 0 0 0 0 127 0" result="hardAlpha"/>
<feOffset dy="4"/>
<feGaussianBlur stdDeviation="2"/>
<feComposite in2="hardAlpha" operator="out"/>
<feColorMatrix type="matrix" values="0 0 0 0 0 0 0 0 0 0 0 0 0 0 0 0 0 0 0.25 0"/>
<feBlend mode="normal" in2="BackgroundImageFix" result="effect1_dropShadow_517_496"/>
<feBlend mode="normal" in="SourceGraphic" in2="effect1_dropShadow_517_496" result="shape"/>
</filter>
<filter id="filter1_d_517_496" x="348" y="529" width="73.99" height="47.4399" filterUnits="userSpaceOnUse" color-interpolation-filters="sRGB">
<feFlood flood-opacity="0" result="BackgroundImageFix"/>
<feColorMatrix in="SourceAlpha" type="matrix" values="0 0 0 0 0 0 0 0 0 0 0 0 0 0 0 0 0 0 127 0" result="hardAlpha"/>
<feOffset dy="4"/>
<feGaussianBlur stdDeviation="2"/>
<feComposite in2="hardAlpha" operator="out"/>
<feColorMatrix type="matrix" values="0 0 0 0 0 0 0 0 0 0 0 0 0 0 0 0 0 0 0.25 0"/>
<feBlend mode="normal" in2="BackgroundImageFix" result="effect1_dropShadow_517_496"/>
<feBlend mode="normal" in="SourceGraphic" in2="effect1_dropShadow_517_496" result="shape"/>
</filter>
<filter id="filter2_d_517_496" x="-37.6372" y="534.368" width="75.3569" height="229.264" filterUnits="userSpaceOnUse" color-interpolation-filters="sRGB">
<feFlood flood-opacity="0" result="BackgroundImageFix"/>
<feColorMatrix in="SourceAlpha" type="matrix" values="0 0 0 0 0 0 0 0 0 0 0 0 0 0 0 0 0 0 127 0" result="hardAlpha"/>
<feOffset dy="4"/>
<feGaussianBlur stdDeviation="2"/>
<feComposite in2="hardAlpha" operator="out"/>
<feColorMatrix type="matrix" values="0 0 0 0 0 0 0 0 0 0 0 0 0 0 0 0 0 0 0.25 0"/>
<feBlend mode="normal" in2="BackgroundImageFix" result="effect1_dropShadow_517_496"/>
<feBlend mode="normal" in="SourceGraphic" in2="effect1_dropShadow_517_496" result="shape"/>
</filter>
<filter id="filter3_d_517_496" x="295.913" y="-17.7041" width="239.686" height="42.9172" filterUnits="userSpaceOnUse" color-interpolation-filters="sRGB">
<feFlood flood-opacity="0" result="BackgroundImageFix"/>
<feColorMatrix in="SourceAlpha" type="matrix" values="0 0 0 0 0 0 0 0 0 0 0 0 0 0 0 0 0 0 127 0" result="hardAlpha"/>
<feOffset dy="4"/>
<feGaussianBlur stdDeviation="2"/>
<feComposite in2="hardAlpha" operator="out"/>
<feColorMatrix type="matrix" values="0 0 0 0 0 0 0 0 0 0 0 0 0 0 0 0 0 0 0.25 0"/>
<feBlend mode="normal" in2="BackgroundImageFix" result="effect1_dropShadow_517_496"/>
<feBlend mode="normal" in="SourceGraphic" in2="effect1_dropShadow_517_496" result="shape"/>
</filter>
<filter id="filter4_d_517_496" x="84" y="246" width="75.49" height="75.49" filterUnits="userSpaceOnUse" color-interpolation-filters="sRGB">
<feFlood flood-opacity="0" result="BackgroundImageFix"/>
<feColorMatrix in="SourceAlpha" type="matrix" values="0 0 0 0 0 0 0 0 0 0 0 0 0 0 0 0 0 0 127 0" result="hardAlpha"/>
<feOffset dy="4"/>
<feGaussianBlur stdDeviation="2"/>
<feComposite in2="hardAlpha" operator="out"/>
<feColorMatrix type="matrix" values="0 0 0 0 0 0 0 0 0 0 0 0 0 0 0 0 0 0 0.25 0"/>
<feBlend mode="normal" in2="BackgroundImageFix" result="effect1_dropShadow_517_496"/>
<feBlend mode="normal" in="SourceGraphic" in2="effect1_dropShadow_517_496" result="shape"/>
</filter>
<filter id="filter5_d_517_496" x="588.852" y="451.586" width="146.533" height="125.085" filterUnits="userSpaceOnUse" color-interpolation-filters="sRGB">
<feFlood flood-opacity="0" result="BackgroundImageFix"/>
<feColorMatrix in="SourceAlpha" type="matrix" values="0 0 0 0 0 0 0 0 0 0 0 0 0 0 0 0 0 0 127 0" result="hardAlpha"/>
<feOffset dy="4"/>
<feGaussianBlur stdDeviation="2"/>
<feComposite in2="hardAlpha" operator="out"/>
<feColorMatrix type="matrix" values="0 0 0 0 0 0 0 0 0 0 0 0 0 0 0 0 0 0 0.25 0"/>
<feBlend mode="normal" in2="BackgroundImageFix" result="effect1_dropShadow_517_496"/>
<feBlend mode="normal" in="SourceGraphic" in2="effect1_dropShadow_517_496" result="shape"/>
</filter>
<linearGradient id="paint0_linear_517_496" x1="589.641" y1="743.511" x2="97.399" y2="7.93429" gradientUnits="userSpaceOnUse">
<stop stop-color="#F8E41C" stop-opacity="0.8"/>
<stop offset="1" stop-color="#F8E41C" stop-opacity="0"/>
</linearGradient>
<linearGradient id="paint1_linear_517_496" x1="0.500003" y1="-3.31426e-06" x2="1426.57" y2="745.435" gradientUnits="userSpaceOnUse">
<stop stop-color="#570782"/>
<stop offset="0.295146" stop-color="#5732B1"/>
<stop offset="0.552083" stop-color="#5778FF"/>
<stop offset="0.997557" stop-color="#F8E41C"/>
</linearGradient>
<clipPath id="clip0_517_496">
<rect width="804" height="780" fill="white"/>
</clipPath>
</defs>
</svg>
