<svg width="162" height="68" viewBox="0 0 162 68" fill="none" xmlns="http://www.w3.org/2000/svg">
<g filter="url(#filter0_d_517_210)">
<path d="M13 37.5V3H142L149.5 10.5V45H20.5L13 37.5Z" fill="#3F65FF"/>
<path d="M13 37.5V3H142L149.5 10.5V45H20.5L13 37.5Z" stroke="#F8E41C" stroke-width="5"/>
</g>
<g filter="url(#filter1_i_517_210)">
<path d="M61.432 26.008C61.432 26.952 61.536 27.584 61.744 27.904C61.952 28.224 62.352 28.384 62.944 28.384C63.232 28.384 63.464 28.344 63.64 28.264C63.832 28.168 63.976 28.056 64.072 27.928C64.184 27.8 64.264 27.592 64.312 27.304C64.36 27.016 64.384 26.76 64.384 26.536C64.4 26.296 64.408 25.944 64.408 25.48V16.744H67.432V25.984C67.432 27.712 67.056 29.032 66.304 29.944C65.552 30.84 64.432 31.288 62.944 31.288C59.952 31.288 58.44 29.528 58.408 26.008H61.432ZM69.7094 23.848C69.7094 21.88 70.4454 20.176 71.9174 18.736C73.4054 17.28 75.1494 16.552 77.1494 16.552C79.1654 16.552 80.9014 17.28 82.3574 18.736C83.8134 20.192 84.5414 21.92 84.5414 23.92C84.5414 25.952 83.8054 27.688 82.3334 29.128C80.8774 30.568 79.1174 31.288 77.0534 31.288C75.0374 31.288 73.3094 30.568 71.8694 29.128C70.4294 27.672 69.7094 25.912 69.7094 23.848ZM77.0774 28.384C78.3094 28.384 79.3574 27.952 80.2214 27.088C81.1014 26.224 81.5414 25.168 81.5414 23.92C81.5414 22.672 81.1094 21.616 80.2454 20.752C79.3974 19.872 78.3574 19.432 77.1254 19.432C75.9254 19.432 74.8934 19.872 74.0294 20.752C73.1654 21.616 72.7334 22.648 72.7334 23.848C72.7334 25.112 73.1654 26.184 74.0294 27.064C74.8934 27.944 75.9094 28.384 77.0774 28.384ZM86.5806 16.744H89.5326V31H86.5806V16.744ZM91.825 31V16.744H93.601L100.537 24.88V16.744H103.561V31H101.785L94.849 22.84V31H91.825Z" fill="white"/>
</g>
<defs>
<filter id="filter0_d_517_210" x="0.5" y="0.5" width="161.5" height="67" filterUnits="userSpaceOnUse" color-interpolation-filters="sRGB">
<feFlood flood-opacity="0" result="BackgroundImageFix"/>
<feColorMatrix in="SourceAlpha" type="matrix" values="0 0 0 0 0 0 0 0 0 0 0 0 0 0 0 0 0 0 127 0" result="hardAlpha"/>
<feOffset dy="10"/>
<feGaussianBlur stdDeviation="5"/>
<feComposite in2="hardAlpha" operator="out"/>
<feColorMatrix type="matrix" values="0 0 0 0 0 0 0 0 0 0 0 0 0 0 0 0 0 0 0.25 0"/>
<feBlend mode="normal" in2="BackgroundImageFix" result="effect1_dropShadow_517_210"/>
<feBlend mode="normal" in="SourceGraphic" in2="effect1_dropShadow_517_210" result="shape"/>
</filter>
<filter id="filter1_i_517_210" x="58.408" y="16.552" width="45.1531" height="18.736" filterUnits="userSpaceOnUse" color-interpolation-filters="sRGB">
<feFlood flood-opacity="0" result="BackgroundImageFix"/>
<feBlend mode="normal" in="SourceGraphic" in2="BackgroundImageFix" result="shape"/>
<feColorMatrix in="SourceAlpha" type="matrix" values="0 0 0 0 0 0 0 0 0 0 0 0 0 0 0 0 0 0 127 0" result="hardAlpha"/>
<feOffset dy="4"/>
<feGaussianBlur stdDeviation="2"/>
<feComposite in2="hardAlpha" operator="arithmetic" k2="-1" k3="1"/>
<feColorMatrix type="matrix" values="0 0 0 0 0 0 0 0 0 0 0 0 0 0 0 0 0 0 0.25 0"/>
<feBlend mode="normal" in2="shape" result="effect1_innerShadow_517_210"/>
</filter>
</defs>
</svg>
