<svg width="478" height="95" viewBox="0 0 478 95" fill="none" xmlns="http://www.w3.org/2000/svg">
<g clip-path="url(#clip0_10_44)" filter="url(#filter0_d_10_44)">
<path d="M4 38.3314H78.983V26.0223H32.7598L15.5039 8.63428H98.0178V54.0165H21.7896V87H4V38.3314Z" fill="#F8E41C"/>
<path d="M4 29.6971H78.983V17.3582H32.7598L15.5039 0H98.0178V45.3822H21.7896V78.3358H4V29.6971Z" fill="white"/>
<path d="M125.206 8.63428V24.7376H186.906L194.052 8.63428H125.206Z" fill="#570782"/>
<path d="M106.142 43.5298V87H192.866L186.195 71.6136H122.33V56.7352H179.761V43.5298H106.142Z" fill="#570782"/>
<path d="M106.142 32.5652V76.0354H192.866L186.195 60.649H122.33V45.7706H179.761V32.5652H106.142Z" fill="white"/>
<path d="M125.206 1.85236V17.9258H186.906L194.052 1.85236H125.206Z" fill="white"/>
<path d="M205.763 25.365C208.55 33.4317 211.337 41.5282 214.095 49.5948H279.145C279.145 55.3609 279.145 61.1271 279.145 66.8932H213.62L203.362 85.1477H295.808V35.4633H225.776V24.409H284.156C287.862 18.2545 291.598 12.0999 295.304 5.91553H205.793C205.793 12.3987 205.793 18.8819 205.793 25.365H205.763Z" fill="#F8E41C"/>
<path d="M208.58 21.3018C211.367 29.3685 214.154 37.465 216.911 45.5316H281.962C281.962 51.2977 281.962 57.0639 281.962 62.83H216.437L206.178 81.0845H298.625V31.3702H228.593V20.3159H286.972C290.679 14.1614 294.414 8.00686 298.121 1.82245H208.61C208.61 8.30562 208.61 14.7888 208.61 21.272L208.58 21.3018Z" fill="white"/>
<path d="M346.152 8.81351H385.616L379.419 24.1998H355.818V86.5817H336.902V24.17L346.123 8.78363L346.152 8.81351Z" fill="#F8E41C"/>
<path d="M308.498 8.15625V23.5426H331.298L339.867 8.15625H308.498Z" fill="#570782"/>
<path d="M308.498 1.82245V17.2088H331.298L339.867 1.82245H308.498Z" fill="white"/>
<path d="M346.152 1.82245H385.616L379.419 17.2088H355.818V79.5906H336.902V17.2088L346.123 1.82245H346.152Z" fill="white"/>
<path d="M408.327 7.3197H430.712L470.887 86.5518H453.512L418.734 21.989L390.597 75.886H427.065L431.809 86.5518H367.263L408.327 7.3197Z" fill="#570782"/>
<path d="M411.41 1.10541H433.796L474 80.3375H456.596L421.817 15.7747L393.71 69.6717H430.149L434.922 80.3375H370.346L411.41 1.10541Z" fill="white"/>
</g>
<defs>
<filter id="filter0_d_10_44" x="0" y="0" width="478" height="95" filterUnits="userSpaceOnUse" color-interpolation-filters="sRGB">
<feFlood flood-opacity="0" result="BackgroundImageFix"/>
<feColorMatrix in="SourceAlpha" type="matrix" values="0 0 0 0 0 0 0 0 0 0 0 0 0 0 0 0 0 0 127 0" result="hardAlpha"/>
<feOffset dy="4"/>
<feGaussianBlur stdDeviation="2"/>
<feComposite in2="hardAlpha" operator="out"/>
<feColorMatrix type="matrix" values="0 0 0 0 0 0 0 0 0 0 0 0 0 0 0 0 0 0 0.25 0"/>
<feBlend mode="normal" in2="BackgroundImageFix" result="effect1_dropShadow_10_44"/>
<feBlend mode="normal" in="SourceGraphic" in2="effect1_dropShadow_10_44" result="shape"/>
</filter>
<clipPath id="clip0_10_44">
<rect width="470" height="87" fill="white" transform="translate(4)"/>
</clipPath>
</defs>
</svg>
