<svg width="1821" height="869" viewBox="0 0 1821 869" fill="none" xmlns="http://www.w3.org/2000/svg">
<path d="M664.374 851.451L703.791 851.451L1685 869L1685 -6.10352e-05L703.79 -9.73254e-05L901.466 178.52L870.41 416.345L746.191 631.175L616.001 851.451L664.374 851.451Z" fill="url(#paint0_linear_687_499)"/>
<g filter="url(#filter0_d_687_499)">
<path d="M772.566 14L970.332 180.856L926.766 449.202L729 834.519L1272.43 850H1777.45L1709.81 700.346L1817 380.968L1650.76 14H1303.38H893.518H772.566Z" fill="url(#paint1_linear_687_499)"/>
</g>
<g clip-path="url(#clip0_687_499)" filter="url(#filter1_d_687_499)">
<path d="M538.247 260.937L549.721 281.536L538.23 302.117L528.833 302.117L539.983 282.115L540.307 281.519L539.983 280.923L528.833 260.92L538.23 260.92M538.945 259.695L526.79 259.695L538.962 281.502L526.79 303.309L538.945 303.309L551.117 281.502L538.945 259.695Z" fill="#F8E41C"/>
<path d="M563.714 260.937L575.188 281.536L563.714 302.134L554.317 302.134L565.468 282.132L565.791 281.536L565.468 280.94L554.317 260.937L563.714 260.937ZM564.429 259.712L552.274 259.712L564.446 281.519L552.274 303.326L564.429 303.326L576.601 281.519L564.429 259.712Z" fill="#F8E41C"/>
<path d="M589.164 260.92L600.638 281.519L589.147 302.1L579.75 302.1L590.901 282.098L591.224 281.502L590.901 280.906L579.75 260.903L589.147 260.903M589.862 259.678L577.707 259.678L589.879 281.485L577.707 303.292L589.862 303.292L602.034 281.485L589.862 259.678Z" fill="#F8E41C"/>
<path d="M614.615 260.937L626.088 281.536L614.598 302.117L605.201 302.117L616.351 282.115L616.674 281.519L616.351 280.923L605.201 260.92L614.598 260.92M615.313 259.695L603.158 259.695L615.33 281.502L603.158 303.309L615.313 303.309L627.484 281.502L615.313 259.695Z" fill="#F8E41C"/>
<path d="M640.065 260.92L651.539 281.519L640.065 302.117L630.668 302.117L641.818 282.115L642.142 281.519L641.818 280.923L630.668 260.92L640.065 260.92ZM640.78 259.695L628.625 259.695L640.797 281.502L628.625 303.309L640.78 303.309L652.952 281.502L640.78 259.695Z" fill="#F8E41C"/>
<path d="M665.515 260.937L676.989 281.536L665.515 302.134L656.118 302.134L667.269 282.132L667.592 281.536L667.269 280.94L656.118 260.937L665.515 260.937ZM666.23 259.712L654.075 259.712L666.247 281.519L654.075 303.326L666.23 303.326L678.402 281.519L666.23 259.712Z" fill="#F8E41C"/>
</g>
<g filter="url(#filter2_d_687_499)">
<path d="M33.6786 287.28L58.0415 311.643L82.4044 287.28L91.7151 296.591L67.3522 320.954L91.72 345.321L82.4093 354.632L58.0415 330.264L33.6737 354.632L24.363 345.321L48.7308 320.954L24.3679 296.591L33.6786 287.28Z" fill="#F8E41C"/>
<path d="M33.6737 210.326L58.0415 234.694L82.4093 210.326L91.7151 219.632L67.3473 244L91.7151 268.368L82.4093 277.674L58.0415 253.306L33.6737 277.674L24.3679 268.368L48.7357 244L24.3679 219.632L33.6737 210.326Z" fill="#F8E41C"/>
<path d="M33.6737 133.368L58.0415 157.736L82.4093 133.368L91.7151 142.674L67.3473 167.041L91.7151 191.409L82.4093 200.715L58.0415 176.347L33.6737 200.715L24.3679 191.409L48.7357 167.041L24.3679 142.674L33.6737 133.368Z" fill="#F8E41C"/>
</g>
<g filter="url(#filter3_d_687_499)">
<path d="M1518.03 334.716L1483.35 307.863L1483.35 312.847L1518.03 339.7L1518.03 334.716Z" fill="#F8E41C"/>
<path d="M1518.05 320.051L1483.37 293.198L1483.36 298.182L1518.04 325.036L1518.05 320.051Z" fill="#F8E41C"/>
<path d="M1518.06 305.387L1483.38 278.533L1483.38 283.518L1518.06 310.371L1518.06 305.387Z" fill="#F8E41C"/>
<path d="M1518.08 290.722L1483.4 263.869L1483.39 268.853L1518.07 295.707L1518.08 290.722Z" fill="#F8E41C"/>
<path d="M1518.1 276.058L1483.42 249.204L1483.41 254.189L1518.09 281.042L1518.1 276.058Z" fill="#F8E41C"/>
<path d="M1518.11 261.389L1483.43 234.536L1483.42 239.524L1518.1 266.378L1518.11 261.389Z" fill="#F8E41C"/>
<path d="M1518.12 246.732L1483.45 219.879L1483.44 224.864L1518.12 251.717L1518.12 246.732Z" fill="#F8E41C"/>
<path d="M1518.14 232.076L1483.47 205.222L1483.46 210.207L1518.13 237.06L1518.14 232.076Z" fill="#F8E41C"/>
<path d="M1518.15 217.418L1483.48 190.561L1483.48 195.55L1518.15 222.403L1518.15 217.418Z" fill="#F8E41C"/>
<path d="M1518.17 202.754L1483.49 175.901L1483.49 180.885L1518.16 207.742L1518.17 202.754Z" fill="#F8E41C"/>
<path d="M1518.19 188.089L1483.51 161.236L1483.5 166.221L1518.18 193.074L1518.19 188.089Z" fill="#F8E41C"/>
<path d="M1518.2 173.425L1483.52 146.572L1483.52 151.556L1518.2 178.409L1518.2 173.425Z" fill="#F8E41C"/>
<path d="M1518.22 158.76L1483.54 131.907L1483.53 136.891L1518.21 163.745L1518.22 158.76Z" fill="#F8E41C"/>
<path d="M1518.24 144.096L1483.56 117.242L1483.55 122.227L1518.23 149.08L1518.24 144.096Z" fill="#F8E41C"/>
<path d="M1518.25 129.431L1483.57 102.578L1483.57 107.562L1518.25 134.416L1518.25 129.431Z" fill="#F8E41C"/>
<path d="M1518.26 114.763L1483.59 87.9133L1483.58 92.8978L1518.26 119.751L1518.26 114.763Z" fill="#F8E41C"/>
</g>
<defs>
<filter id="filter0_d_687_499" x="725" y="14" width="1096" height="844" filterUnits="userSpaceOnUse" color-interpolation-filters="sRGB">
<feFlood flood-opacity="0" result="BackgroundImageFix"/>
<feColorMatrix in="SourceAlpha" type="matrix" values="0 0 0 0 0 0 0 0 0 0 0 0 0 0 0 0 0 0 127 0" result="hardAlpha"/>
<feOffset dy="4"/>
<feGaussianBlur stdDeviation="2"/>
<feComposite in2="hardAlpha" operator="out"/>
<feColorMatrix type="matrix" values="0 0 0 0 0 0 0 0 0 0 0 0 0 0 0 0 0 0 0.25 0"/>
<feBlend mode="normal" in2="BackgroundImageFix" result="effect1_dropShadow_687_499"/>
<feBlend mode="normal" in="SourceGraphic" in2="effect1_dropShadow_687_499" result="shape"/>
</filter>
<filter id="filter1_d_687_499" x="501" y="190" width="191.037" height="191.038" filterUnits="userSpaceOnUse" color-interpolation-filters="sRGB">
<feFlood flood-opacity="0" result="BackgroundImageFix"/>
<feColorMatrix in="SourceAlpha" type="matrix" values="0 0 0 0 0 0 0 0 0 0 0 0 0 0 0 0 0 0 127 0" result="hardAlpha"/>
<feOffset dy="4"/>
<feGaussianBlur stdDeviation="2"/>
<feComposite in2="hardAlpha" operator="out"/>
<feColorMatrix type="matrix" values="0 0 0 0 0 0 0 0 0 0 0 0 0 0 0 0 0 0 0.25 0"/>
<feBlend mode="normal" in2="BackgroundImageFix" result="effect1_dropShadow_687_499"/>
<feBlend mode="normal" in="SourceGraphic" in2="effect1_dropShadow_687_499" result="shape"/>
</filter>
<filter id="filter2_d_687_499" x="20.363" y="133.368" width="75.3569" height="229.264" filterUnits="userSpaceOnUse" color-interpolation-filters="sRGB">
<feFlood flood-opacity="0" result="BackgroundImageFix"/>
<feColorMatrix in="SourceAlpha" type="matrix" values="0 0 0 0 0 0 0 0 0 0 0 0 0 0 0 0 0 0 127 0" result="hardAlpha"/>
<feOffset dy="4"/>
<feGaussianBlur stdDeviation="2"/>
<feComposite in2="hardAlpha" operator="out"/>
<feColorMatrix type="matrix" values="0 0 0 0 0 0 0 0 0 0 0 0 0 0 0 0 0 0 0.25 0"/>
<feBlend mode="normal" in2="BackgroundImageFix" result="effect1_dropShadow_687_499"/>
<feBlend mode="normal" in="SourceGraphic" in2="effect1_dropShadow_687_499" result="shape"/>
</filter>
<filter id="filter3_d_687_499" x="1479.35" y="87.9131" width="42.917" height="259.787" filterUnits="userSpaceOnUse" color-interpolation-filters="sRGB">
<feFlood flood-opacity="0" result="BackgroundImageFix"/>
<feColorMatrix in="SourceAlpha" type="matrix" values="0 0 0 0 0 0 0 0 0 0 0 0 0 0 0 0 0 0 127 0" result="hardAlpha"/>
<feOffset dy="4"/>
<feGaussianBlur stdDeviation="2"/>
<feComposite in2="hardAlpha" operator="out"/>
<feColorMatrix type="matrix" values="0 0 0 0 0 0 0 0 0 0 0 0 0 0 0 0 0 0 0.25 0"/>
<feBlend mode="normal" in2="BackgroundImageFix" result="effect1_dropShadow_687_499"/>
<feBlend mode="normal" in="SourceGraphic" in2="effect1_dropShadow_687_499" result="shape"/>
</filter>
<linearGradient id="paint0_linear_687_499" x1="1286.66" y1="700.162" x2="695.954" y2="-139.116" gradientUnits="userSpaceOnUse">
<stop stop-color="#F8E41C" stop-opacity="0.8"/>
<stop offset="1" stop-color="#F8E41C" stop-opacity="0"/>
</linearGradient>
<linearGradient id="paint1_linear_687_499" x1="779.445" y1="14.0001" x2="2297.18" y2="1576.58" gradientUnits="userSpaceOnUse">
<stop stop-color="#570782"/>
<stop offset="0.295146" stop-color="#5732B1"/>
<stop offset="0.566565" stop-color="#5778FF"/>
<stop offset="0.770833" stop-color="#5FA0ED"/>
<stop offset="1" stop-color="#F8E41C"/>
</linearGradient>
<clipPath id="clip0_687_499">
<rect width="129.427" height="129.427" fill="white" transform="translate(596.519 190) rotate(45)"/>
</clipPath>
</defs>
</svg>
