<svg width="1440" height="778" viewBox="0 0 1440 778" fill="none" xmlns="http://www.w3.org/2000/svg">
<mask id="mask0_778_460" style="mask-type:alpha" maskUnits="userSpaceOnUse" x="0" y="0" width="1440" height="778">
<rect y="0.143433" width="1440" height="777" fill="#D9D9D9"/>
</mask>
<g mask="url(#mask0_778_460)">
<path d="M421.536 789.935L461.084 789.935L1445.56 807.144L1445.56 -44.9999L461.083 -44.9999L659.417 130.057L628.258 363.269L503.626 573.932L373.001 789.935L421.536 789.935Z" fill="url(#paint0_linear_778_460)"/>
<g filter="url(#filter0_d_778_460)">
<path d="M530.074 -31.2715L728.499 132.348L684.788 395.488L486.363 773.331L1031.6 788.512H1538.3L1470.43 641.761L1577.99 328.579L1411.2 -31.2715H1062.66H651.43H530.074Z" fill="url(#paint1_linear_778_460)"/>
</g>
</g>
<defs>
<filter id="filter0_d_778_460" x="482.296" y="-31.2715" width="1099.76" height="827.919" filterUnits="userSpaceOnUse" color-interpolation-filters="sRGB">
<feFlood flood-opacity="0" result="BackgroundImageFix"/>
<feColorMatrix in="SourceAlpha" type="matrix" values="0 0 0 0 0 0 0 0 0 0 0 0 0 0 0 0 0 0 127 0" result="hardAlpha"/>
<feOffset dy="4.06751"/>
<feGaussianBlur stdDeviation="2.03376"/>
<feComposite in2="hardAlpha" operator="out"/>
<feColorMatrix type="matrix" values="0 0 0 0 0 0 0 0 0 0 0 0 0 0 0 0 0 0 0.25 0"/>
<feBlend mode="normal" in2="BackgroundImageFix" result="effect1_dropShadow_778_460"/>
<feBlend mode="normal" in="SourceGraphic" in2="effect1_dropShadow_778_460" result="shape"/>
</filter>
<linearGradient id="paint0_linear_778_460" x1="1045.9" y1="641.581" x2="471.242" y2="-193.813" gradientUnits="userSpaceOnUse">
<stop stop-color="#F8E41C" stop-opacity="0.8"/>
<stop offset="1" stop-color="#F8E41C" stop-opacity="0"/>
</linearGradient>
<linearGradient id="paint1_linear_778_460" x1="536.976" y1="-31.2714" x2="2023.88" y2="1535.06" gradientUnits="userSpaceOnUse">
<stop stop-color="#570782"/>
<stop offset="0.295146" stop-color="#5732B1"/>
<stop offset="0.566565" stop-color="#5778FF"/>
<stop offset="0.770833" stop-color="#5FA0ED"/>
<stop offset="1" stop-color="#F8E41C"/>
</linearGradient>
</defs>
</svg>
