<svg width="205" height="59" viewBox="0 0 205 59" fill="none" xmlns="http://www.w3.org/2000/svg">
<mask id="mask0_751_197" style="mask-type:alpha" maskUnits="userSpaceOnUse" x="0" y="0" width="205" height="59">
<rect width="205" height="59" fill="#D9D9D9"/>
</mask>
<g mask="url(#mask0_751_197)">
<g filter="url(#filter0_d_751_197)">
<path d="M17.3051 2.68315L32.633 30.2003L17.2824 57.6953H4.729L19.6248 30.9734L20.0569 30.1774L19.6248 29.3823L4.729 2.66035H17.2824M18.2375 1.02295H2L18.2603 30.1553L2 59.2874H18.2375L34.4979 30.1553L18.2375 1.02295Z" fill="#F8E41C"/>
<path d="M51.3268 2.68306L66.6547 30.2004L51.3268 57.7184H38.7734L53.6692 30.9964L54.1013 30.2004L53.6692 29.4044L38.7734 2.68306H51.3268ZM52.2819 1.04565H36.0444L52.3047 30.1774L36.0444 59.3104H52.2819L68.5423 30.1774L52.2819 1.04565Z" fill="#F8E41C"/>
<path d="M85.3258 2.6601L100.654 30.1773L85.3028 57.6723H72.7496L87.6458 30.9513L88.0778 30.1553L87.6458 29.3593L72.7496 2.6374H85.3028M86.2578 1H70.0205L86.2808 30.1323L70.0205 59.2643H86.2578L102.519 30.1323L86.2578 1Z" fill="#F8E41C"/>
<path d="M119.325 2.68315L134.653 30.2003L119.302 57.6953H106.749L121.644 30.9734L122.077 30.1774L121.644 29.3823L106.749 2.66035H119.302M120.257 1.02295H104.02L120.28 30.1553L104.02 59.2874H120.257L136.518 30.1553L120.257 1.02295Z" fill="#F8E41C"/>
<path d="M153.324 2.66035L168.652 30.1774L153.324 57.6953H140.77L155.666 30.9734L156.098 30.1774L155.666 29.3823L140.77 2.66035H153.324ZM154.279 1.02295H138.041L154.302 30.1553L138.041 59.2874H154.279L170.539 30.1553L154.279 1.02295Z" fill="#F8E41C"/>
<path d="M187.323 2.68306L202.65 30.2004L187.323 57.7184H174.769L189.665 30.9964L190.097 30.2004L189.665 29.4044L174.769 2.68306H187.323ZM188.278 1.04565H172.04L188.3 30.1774L172.04 59.3104H188.278L204.538 30.1774L188.278 1.04565Z" fill="#F8E41C"/>
</g>
</g>
<defs>
<filter id="filter0_d_751_197" x="-2" y="1" width="210.538" height="66.3103" filterUnits="userSpaceOnUse" color-interpolation-filters="sRGB">
<feFlood flood-opacity="0" result="BackgroundImageFix"/>
<feColorMatrix in="SourceAlpha" type="matrix" values="0 0 0 0 0 0 0 0 0 0 0 0 0 0 0 0 0 0 127 0" result="hardAlpha"/>
<feOffset dy="4"/>
<feGaussianBlur stdDeviation="2"/>
<feComposite in2="hardAlpha" operator="out"/>
<feColorMatrix type="matrix" values="0 0 0 0 0 0 0 0 0 0 0 0 0 0 0 0 0 0 0.25 0"/>
<feBlend mode="normal" in2="BackgroundImageFix" result="effect1_dropShadow_751_197"/>
<feBlend mode="normal" in="SourceGraphic" in2="effect1_dropShadow_751_197" result="shape"/>
</filter>
</defs>
</svg>
