<svg width="111" height="111" viewBox="0 0 111 111" fill="none" xmlns="http://www.w3.org/2000/svg">
<g filter="url(#filter0_d_732_264)">
<path d="M94.6383 81.6949L94.6383 90.6382L85.6951 90.6382L85.6951 94.0567L94.6383 94.0567L94.6383 103L98.0569 103L98.0569 94.0567L107 94.0567L107 90.6382L98.0569 90.6382L98.0569 81.6949L94.6383 81.6949Z" fill="#F8E41C"/>
<path d="M74.2181 61.2597L74.2181 70.2182L65.2749 70.2182L65.2749 73.6368L74.2181 73.6368L74.2181 82.5801L77.6367 82.5801L77.6367 73.6368L86.58 73.6368L86.58 70.2182L77.6367 70.2182L77.6367 61.2597L74.2181 61.2597Z" fill="#F8E41C"/>
<path d="M53.7985 40.8398L53.7985 49.7831L44.8552 49.7831L44.8552 53.2016L53.7985 53.2016L53.7985 62.1449L57.2171 62.1449L57.2171 53.2016L66.1603 53.2016L66.1603 49.7831L57.2171 49.7831L57.2171 40.8398L53.7985 40.8398Z" fill="#F8E41C"/>
<path d="M33.3629 20.4199L33.3629 29.3631L24.4197 29.3631L24.4197 32.7817L33.3629 32.7817L33.3629 41.725L36.7815 41.725L36.7815 32.7817L45.74 32.7817L45.74 29.3631L36.7815 29.3631L36.7815 20.4199L33.3629 20.4199Z" fill="#F8E41C"/>
<path d="M12.9433 -2.90726e-05L12.9433 8.94322L4 8.94322L4 12.3618L12.9433 12.3618L12.9433 21.3051L16.3618 21.3051L16.3618 12.3618L25.3051 12.3618L25.3051 8.94322L16.3618 8.94322L16.3618 -2.9222e-05L12.9433 -2.90726e-05Z" fill="#F8E41C"/>
</g>
<defs>
<filter id="filter0_d_732_264" x="0" y="0" width="111" height="111" filterUnits="userSpaceOnUse" color-interpolation-filters="sRGB">
<feFlood flood-opacity="0" result="BackgroundImageFix"/>
<feColorMatrix in="SourceAlpha" type="matrix" values="0 0 0 0 0 0 0 0 0 0 0 0 0 0 0 0 0 0 127 0" result="hardAlpha"/>
<feOffset dy="4"/>
<feGaussianBlur stdDeviation="2"/>
<feComposite in2="hardAlpha" operator="out"/>
<feColorMatrix type="matrix" values="0 0 0 0 0 0 0 0 0 0 0 0 0 0 0 0 0 0 0.25 0"/>
<feBlend mode="normal" in2="BackgroundImageFix" result="effect1_dropShadow_732_264"/>
<feBlend mode="normal" in="SourceGraphic" in2="effect1_dropShadow_732_264" result="shape"/>
</filter>
</defs>
</svg>
