<svg width="147" height="28" viewBox="0 0 147 28" fill="none" xmlns="http://www.w3.org/2000/svg">
<g clip-path="url(#clip0_612_625)">
<path d="M0 12.1991H23.4521V8.37908H8.99508L3.59803 2.98279H29.4056V17.0669H5.56397V27.3032H0V12.1991Z" fill="white"/>
<path d="M0 9.51957H23.4521V5.69024H8.99508L3.59803 0.303223H29.4056V14.3874H5.56397V24.6143H0V9.51957Z" fill="#4469FF"/>
<path d="M37.9092 2.98279V7.98038H57.2069L59.4417 2.98279H37.9092Z" fill="white"/>
<path d="M31.9464 13.8125V27.3032H59.0707L56.9843 22.5282H37.0096V17.9107H54.972V13.8125H31.9464Z" fill="white"/>
<path d="M31.9464 10.4097V23.9004H59.0707L56.9843 19.1253H37.0096V14.5079H54.972V10.4097H31.9464Z" fill="#F8E41C"/>
<path d="M37.9092 0.878052V5.86638H57.2069L59.4417 0.878052H37.9092Z" fill="#FF003D"/>
<path d="M61.7701 9.10857C62.6417 11.612 63.5134 14.1247 64.3759 16.6281H84.7214C84.7214 18.4176 84.7214 20.2071 84.7214 21.9966H64.2275L61.0189 27.6618H89.933V12.2425H68.0295V8.81186H86.2886C87.4478 6.90184 88.6162 4.99181 89.7754 3.07251H61.7793C61.7793 5.08453 61.7793 7.09655 61.7793 9.10857H61.7701Z" fill="white"/>
<path d="M63.3444 7.7332C64.2161 10.2366 65.0878 12.7493 65.9502 15.2528H86.2958C86.2958 17.0423 86.2958 18.8318 86.2958 20.6212H65.8018L62.5933 26.2864H91.5073V10.8579H69.6039V7.42722H87.8629C89.0221 5.51719 90.1905 3.60717 91.3497 1.68787H63.3537C63.3537 3.69989 63.3537 5.7119 63.3537 7.72392L63.3444 7.7332Z" fill="#570782"/>
<path d="M107.014 3.03845H119.356L117.418 7.81352H110.037V27.1734H104.12V7.80424L107.004 3.02917L107.014 3.03845Z" fill="white"/>
<path d="M95.2366 2.83447V7.60954H102.368L105.048 2.83447H95.2366Z" fill="white"/>
<path d="M95.2366 0.868774V5.64384H102.368L105.048 0.868774H95.2366Z" fill="#111419"/>
<path d="M107.014 0.868774H119.356L117.418 5.64384H110.037V25.0037H104.12V5.64384L107.004 0.868774H107.014Z" fill="#F8E41C"/>
<path d="M126.46 2.57483H133.461L146.026 27.1641H140.592L129.715 7.12737L120.914 23.854H132.32L133.804 27.1641H113.616L126.46 2.57483Z" fill="white"/>
<path d="M127.424 0.64624H134.426L147 25.2355H141.557L130.679 5.19878L121.888 21.9254H133.285L134.778 25.2355H114.581L127.424 0.64624Z" fill="#FF003D"/>
</g>
<defs>
<clipPath id="clip0_612_625">
<rect width="147" height="27" fill="white" transform="translate(0 0.303223)"/>
</clipPath>
</defs>
</svg>
