<svg width="411" height="522" viewBox="0 0 411 522" fill="none" xmlns="http://www.w3.org/2000/svg">
<path d="M382.882 5.30615H88.8461L5 458.099L63.5774 516.858H320.858L405.853 28.349L382.882 5.30615Z" stroke="white" stroke-width="10" stroke-linejoin="round"/>
<path d="M124.177 45.0034L313.124 45.0034L337.671 17.8192L374.3 17.8192L381.531 9.81727L344.903 9.81728L273.175 9.81728L92.3767 9.8173L124.177 45.0034Z" fill="white"/>
<path d="M331.087 450.997L117.364 450.997L7.25171 450.997L7.25171 458.666L66.2537 516.858H90.679H156.151H321.178L331.087 450.997Z" fill="white"/>
<path d="M343.248 279.126L363.516 260.18C352.256 316.718 327.934 450.997 327.934 461.372C327.934 467.146 313.221 458.816 308.567 456.41L343.248 279.126Z" fill="white"/>
<path d="M81.1168 132.518L103.637 17.9371L92.8271 5.30615C84.1194 50.5669 66.7041 141.81 66.7041 144.697C66.7041 147.584 76.3126 137.78 81.1168 132.518Z" fill="white"/>
</svg>
