<?xml version="1.0" encoding="UTF-8"?>
<svg id="Layer_1" data-name="Layer 1" xmlns="http://www.w3.org/2000/svg" xmlns:xlink="http://www.w3.org/1999/xlink" viewBox="0 0 243.28 158.74">
  <defs>
    <style>
      .cls-1 {
        fill: #13a568;
      }

      .cls-1, .cls-2, .cls-3, .cls-4, .cls-5, .cls-6, .cls-7, .cls-8, .cls-9, .cls-10, .cls-11, .cls-12 {
        stroke-width: 0px;
      }

      .cls-13 {
        opacity: .52;
      }

      .cls-2 {
        fill: #dd442b;
      }

      .cls-3 {
        fill: #addbf6;
      }

      .cls-4 {
        fill: #fffdfa;
        opacity: .15;
      }

      .cls-5, .cls-14, .cls-15, .cls-16, .cls-17 {
        fill: none;
      }

      .cls-14 {
        stroke: #214d31;
      }

      .cls-14, .cls-15, .cls-17 {
        stroke-linecap: round;
        stroke-linejoin: round;
      }

      .cls-6 {
        fill: #fff;
      }

      .cls-15, .cls-16 {
        stroke: #074b64;
      }

      .cls-15, .cls-16, .cls-17 {
        stroke-width: 2px;
      }

      .cls-7 {
        fill: #ffc829;
      }

      .cls-16 {
        stroke-miterlimit: 10;
      }

      .cls-8 {
        fill: #0b5c75;
      }

      .cls-18 {
        clip-path: url(#clippath);
      }

      .cls-9 {
        fill: #649cd4;
      }

      .cls-17 {
        stroke: #064a64;
      }

      .cls-10 {
        fill: #084251;
      }

      .cls-11 {
        fill: #3bc5ec;
      }

      .cls-12 {
        fill: #fbad2d;
      }
    </style>
    <clipPath id="clippath">
      <rect class="cls-5" width="243.28" height="158.74" rx="10.79" ry="10.79"/>
    </clipPath>
  </defs>
  <g>
    <path class="cls-17" d="m113.62,121.78c4.33-.86,8.6-2,12.78-3.43"/>
    <path class="cls-17" d="m114.01,115.53c3.77,3.3,7.69,6.42,11.74,9.35"/>
    <path class="cls-17" d="m118.38,127.53c1.08-4.51,1.94-9.08,2.57-13.68"/>
  </g>
  <g>
    <path class="cls-16" d="m219.47,23.25c4.33-.86,8.6-2,12.78-3.43"/>
    <path class="cls-16" d="m219.87,17c3.77,3.3,7.69,6.42,11.74,9.35"/>
    <path class="cls-16" d="m224.23,29c1.08-4.51,1.94-9.08,2.57-13.68"/>
  </g>
  <g>
    <path class="cls-11" d="m187.73,20.02c9.8.3,17.84,9.05,18.82,18.76,1.2,12.01-10.35,24.11-22.5,21.94-2.38-.42-4.64-1.39-6.72-2.63-5.42-3.23-9.83-8.7-10.6-15.05-.29-2.37-.07-4.8.53-7.11,2.35-9.13,11.21-16.2,20.48-15.91Z"/>
    <path class="cls-1" d="m201.45,26.98c-.6-.05-2.8.46-3.17.94-.12.16-.23.34-.4.43-.22.11-.47.04-.69-.08-.53-.28-.91-.78-1.37-1.18s-1.1-.69-1.65-.44c-.42.19-.7.91-.96,1.3-.4.59-.76,1.27-.66,1.72.22.97,1.47,1.43,1.69,2.4.2.9.4,1.85.12,2.73-.15.48-.44.95-.33,1.44.13.64.83.93,1.42,1.18.59.25,1.79,1.26,1.55,1.87-.59,1.5-2.57,2.22-4.32,2.74.03.42-.53.65-.93.53-.4-.12-.72-.44-1.12-.58-.43-.15-.92-.08-1.34-.27-.33-.15-.57-.43-.86-.64-.29-.21-.99-.5-1.3-.32-1.49-.35-3.49-.57-5.02-.58-.39,1.65-1.5,3.24-1.05,4.88.27.98.66,1.87,1.37,2.59-.7,1.25-1.39,2.5-2.09,3.75-.15.28-.31.58-.29.9.04.52.73,1.14.53,1.62-.5,1.19-1.07,2.58-1.57,3.77.72.2,1.67.47,2.38.71.4-.62.81-1.23,1.21-1.85.27-.41.54-.82.88-1.16.36-.36.93-.86,1.41-1.03,1.11-1.6,2.42-2.85,3.63-4.37,1.88-.24,3.69-.82,5.27-1.88.18-.43.24-.89.3-1.35.14-1.11.28-2.22.42-3.34.53-.2,1.28-.76,1.7-1.14.41-.36.79-.82,1.33-.94.46-.11,1.02.04,1.36-.29.84-.8,2.17-1.18,3.31-1.07.7.07,1.39.42,2.07.25.3-.08.57-.26.83-.43.26-.17,1.17-.83,1.43-1.01-.54-4.66-1.69-8.65-5.09-11.8Z"/>
    <path class="cls-14" d="m205.88,39.03c-.56.61-1.23,1.27-2.05,1.19-.3-.03-.57-.16-.86-.25-1.33-.45-2.87-.16-3.95.74-.69.57-1.61.91-2.47.7-.7.58-1.39,1.47-2.09,2.05"/>
    <path class="cls-14" d="m193.01,41.89c.48-.21.96-.41,1.43-.62.66-.28,1.33-.58,1.82-1.1.49-.52.76-1.34.45-1.99-.88-.36-1.71-.96-2.53-1.43"/>
    <path class="cls-14" d="m194.14,35.55c-.08-.56.01-1.15.27-1.64"/>
    <path class="cls-14" d="m194.36,32.62c.05-.54-.13-1.08-.38-1.56-.37-.68-.91-1.26-1.56-1.66.3-1.06,1-2.32,1.68-3.17.83.53,2.16,1.24,2.99,1.77"/>
    <path class="cls-14" d="m198.73,27.76c.77-.25,1.53-.5,2.3-.76"/>
    <path class="cls-14" d="m194.45,44.43c-.09,1.23-.21,2.46-.37,3.69-1.76.83-3.85,1.57-5.75,1.94-1.05,1.32-2.17,2.67-3.22,3.99-.48.6-1.24,1.2-1.78,1.74-.72.72-1.46,1.65-1.87,2.59-.66-.09-1.43-.28-2.01-.6"/>
    <path class="cls-14" d="m192.83,41.88c-.31.34-.82.44-1.27.37-.45-.07-.87-.28-1.28-.49-.09-.04-.17-.09-.26-.13-.41-.21-.86-.43-1.32-.4-.32.02-.78.06-.81-.26"/>
    <path class="cls-14" d="m186.09,40.63c-1.25-.07-2.5-.23-3.74-.48-.54,1.28-1.2,2.85-1.35,4.24.39.67.78,1.66,1.17,2.34.1.17.2.34.24.53.14.58-.25,1.13-.62,1.59-.42.53-.63,1.55-.97,2.14-.26.45-.53.94-.46,1.46.06.39.32.76.27,1.15-.13.96-.79,1.99-1.33,2.78"/>
    <path class="cls-1" d="m167.17,36.22c1.16-.7,3.08-1.01,4.35-.53.28.11.57.24.86.2.27-.04.5-.22.73-.34.38-.21.76-.42,1.1-.71,1.21-1.03,1.61-1.84,1.67-3.05.07-1.37.37-2.72,1.02-3.92.26-.48.58-.97,1.08-1.2.19-.09.55.26.91.72.79,1,2.23,1.18,3.21.38.4-.33.8-.54,1.23-.37.66.25,1.29.6,1.98.73.69.13,1.8-1.91,1.93-2.28.1-.28.12-.58.07-.88-.07-.44-.12-.87-.14-1.28-.05-1.25,1.74-2.07.77-3.66-4.83-.18-7.62.87-10.79,2.86-4.99,3.13-8.52,7.54-9.98,13.33Z"/>
    <path class="cls-14" d="m187.96,20.13c.28.4.3.94.16,1.41-.13.47-.4.88-.67,1.29"/>
    <path class="cls-14" d="m187.24,23.76c.05.63.16,1.25.31,1.87"/>
    <path class="cls-14" d="m187.16,26.25c-.28.42-.56.84-.84,1.26-.12.18-.25.37-.44.48-.25.14-.56.12-.83.03-.27-.1-.51-.26-.75-.4-.47-.27-.97-.48-1.49-.6"/>
    <path class="cls-14" d="m182.14,27.55c-.49.56-1.27.83-2,.7"/>
    <path class="cls-14" d="m178.54,27.18c-.27-.23-.69-.16-.96.06-.27.22-.43.55-.58.88-.09.2-.19.41-.28.61"/>
    <path class="cls-14" d="m175.96,30.15c-.02.93-.1,1.87-.25,2.79-.02.13-.06.27-.17.32"/>
    <path class="cls-14" d="m174.62,34.33c-.52.47-1.08.91-1.67,1.29"/>
    <path class="cls-14" d="m171.68,35.83c-.71-.31-1.49-.47-2.27-.45"/>
    <path class="cls-14" d="m168.39,35.67c-.24.14-.49.29-.73.43"/>
    <path class="cls-14" d="m202.18,35.1c-.83.22-1.67.37-2.53.45"/>
    <path class="cls-14" d="m202.7,33.79c-.78.14-1.56.27-2.35.41"/>
    <path class="cls-14" d="m173.92,26.86c-.93.81-1.77,1.73-2.49,2.74"/>
    <path class="cls-14" d="m170.39,30.98c-.33.36-.59.78-.76,1.24"/>
    <path class="cls-14" d="m187.42,46.22c-.7.13-1.4.26-2.1.39"/>
  </g>
  <g class="cls-18">
    <path class="cls-7" d="m162.92,119.77c-4.4,7.91-2.34,16.58-1.55,19.29,3.66,12.52,15.42,18.46,22.93,22.26,24.33,12.29,48.06,5.9,48.21,5.68,0,0,0,0,0,0-.02-.38-14.51-2.08-28.5,3.93-2.94,1.26-3.23,1.74-11.57,5.83-12.88,6.32-16.96,7.53-16.82,8.23.44,2.24,92.2-26.86,111.57-4.96,6.42,7.25.75,30.2-49.17,97.15,29.35-4.93,88.05-14.79,88.05-14.79,0,0,40.72-23.82,49.92-74.01,8.42-45.9-10.55-91.54-27.65-130.31L274.31-2.89c-39.64,2.93-53.13.98-57.66-1.62-1.11-.64-7.37-4.57-16.29-5.67-1.04-.13-1.88-.19-2.36-.22,2.86,3.56,5.71,7.13,8.57,10.69,6.87.84,16.46,3.17,24.48,10.36,6.05,5.43,8.3,11.01,11.73,17.18,4.62,8.3,12.49,19.64,26.52,31.42-1.23-6.39-5.08-24.43-11.3-24.71-1.14-.05-2.55.51-3,1.53-1.74,3.97,23.13,12.07,26.42,25.83,3.44,14.36-15.77,38.33-38.85,44.64-21.01,5.75-38.02-7.27-64.13,1.75-5.67,1.96-11.95,5.02-15.54,11.46Z"/>
    <path class="cls-12" d="m170.56,107.31c-4.76-.85-11.74,6.3-13.02,12.78-2.59,13.1,13.96,27.59,26.74,33.91,9.18,4.54,17.66,5.47,22.5,5.67-13.9,6.71-27.8,13.42-41.7,20.13,32.08-4.64,44.38-7.09,44.27-8.11-.19-1.9-42.98.72-43.05,3.93-.05,2.33,22.24,3.35,22.58,7.66.28,3.52-17.01,7.28-16.82,8.23.44,2.24,92.2-26.86,111.57-4.96,6.42,7.25.75,30.2-49.17,97.15,29.35-4.93,88.05-14.79,88.05-14.79,0,0,40.72-23.82,49.92-74.01,8.42-45.9-10.55-91.54-27.65-130.31L270.75,3.65c-37.98-13.73-57.99-18.48-60.02-14.27-.89,1.85,1.68,5.42,7.71,10.72,2.46.07,10.06.63,16.96,6.46,5.27,4.46,7.49,9.77,8.36,12.27,21.38,9.63,34.8,29.42,34.11,49.62-.85,24.75-22.5,38.79-26.72,41.53-31.03,20.14-72.75,3.53-78.09-1.35-.22-.2-1.13-1.07-2.51-1.32Z"/>
    <path class="cls-15" d="m245.05,60.21c-1.88,1.36-3.68,3.02-5.57,4.38-2.36-1.49-4.85-2.62-7.16-4.18,1.39,2.66,2.78,5.31,4.16,7.97-1.32,1.86-2.71,3.61-4.03,5.47,2.37-.42,4.41-.06,6.78-.49,1.27,1.45,2.61,3.43,3.25,5.25.14-2.27,1.03-4.58.77-6.84,2.53.29,4.93,0,6.97.2,0,0-4.6-3.32-6.15-4.72-.25-.3.96-7.04.96-7.04Z"/>
    <g>
      <g>
        <path class="cls-8" d="m151.4,120.18s5.89,6.72,8.29,4.95c2.41-1.76,13.84-11.9,13.58-13.53s-4.31-9.04-5.26-8.39-16.61,16.97-16.61,16.97Z"/>
        <path class="cls-9" d="m134.49,110.1c-.52.5.77,17.51,3.71,20.71,2.95,3.2,24.68,3.6,22.47-.5-2.21-4.11-26.18-20.21-26.18-20.21Z"/>
        <path class="cls-9" d="m159.2,86.45c.52-.5,17.11,1.86,20.07,5.06,2.95,3.19,2,25.3-1.89,22.8-3.89-2.5-18.18-27.86-18.18-27.86Z"/>
        <path class="cls-2" d="m134.49,110.1c-.52.5.77,17.51,3.71,20.71,2.95,3.2,24.68,3.6,22.47-.5-2.21-4.11-26.18-20.21-26.18-20.21Z"/>
        <path class="cls-4" d="m137.07,115.72c1.95-.14,5.59,11.37,3.2,13.08-2.39,1.71-5.15-12.94-3.2-13.08Z"/>
        <path class="cls-2" d="m159.2,86.45c.52-.5,17.11,1.86,20.07,5.06,2.95,3.19,2,25.3-1.89,22.8-3.89-2.5-18.18-27.86-18.18-27.86Z"/>
        <path class="cls-10" d="m151.01,123.03s-49.23-28.56-41.35-66.03c0,0,36.31-3.57,61.94,46.75l-20.58,19.28Z"/>
        <path class="cls-2" d="m128.36,96.62c-3.44-2.99-5.58-7.32-5.4-11.92.11-2.77,1.02-5.89,3.76-8.63,6.97-6.99,15.23-3.15,18.44-.36,3.21,2.79,11,12.62.19,21.34-6.59,5.31-13.29,2.79-16.99-.43Z"/>
        <path class="cls-3" d="m128.48,78.71c10.21-11.82,24.51,4.7,16,15.11-8.06,9.85-26.21-3.29-16-15.11Z"/>
        <g class="cls-13">
          <path class="cls-6" d="m129.46,77.68l-1.04,15.57c1.28,1.38,2.87,2.47,4.6,3.18l1.32-21.55c-1.64.39-3.29,1.29-4.88,2.81Z"/>
          <path class="cls-6" d="m136.17,74.63l-.6,22.5c.9.15,1.82.19,2.72.09l.81-22.14c-.94-.31-1.92-.47-2.93-.45Z"/>
        </g>
        <path class="cls-2" d="m135.38,63.63c-14.43-7.74-25.72-6.64-25.72-6.64-2.11,10.01-.13,19.39,3.89,27.76,6.75-5.36,15.71-13.17,21.83-21.12Z"/>
        <path class="cls-2" d="m148.84,98.17c7.84-6.18,24.81,20.05,20.73,24.24-4.08,4.18-28.97-17.74-20.73-24.24Z"/>
        <path class="cls-4" d="m150.02,102.56c2.06-3.7,19.4,17.75,17.8,19.28-1.6,1.53-19.86-15.58-17.8-19.28Z"/>
      </g>
      <path class="cls-4" d="m110.48,60.48c1.74-2.4,7.5,18.64,4.92,20.91-2.57,2.28-6.66-18.52-4.92-20.91Z"/>
    </g>
  </g>
  <path class="cls-16" d="m221.94,80.27c-1.63.85-3.83.36-4.96-1.12-1.13-1.48-1.05-3.77.16-5.17,1.4-1.61,3.62-1.82,5.11-.31,1.49,1.52,1.56,5.6-.32,6.59Z"/>
  <g>
    <path class="cls-16" d="m229.67,91.08c4.33-.86,8.6-2,12.78-3.43"/>
    <path class="cls-16" d="m230.07,84.83c3.77,3.3,7.69,6.42,11.74,9.35"/>
    <path class="cls-16" d="m234.43,96.83c1.08-4.51,1.94-9.08,2.57-13.68"/>
  </g>
  <path class="cls-15" d="m112.25,65.7c-2.18.77-4.36,1.86-6.55,2.63-1.86-2.1-3.94-3.89-5.74-6.04.61,2.94,1.21,5.89,1.82,8.83-1.78,1.41-3.59,2.7-5.36,4.11,2.39.26,4.25,1.19,6.65,1.45.82,1.75,1.56,4.03,1.69,5.97.76-2.14,2.24-4.11,2.61-6.36,2.35.99,4.73,1.4,6.64,2.17,0,0-3.51-4.49-4.61-6.27-.16-.36,2.85-6.49,2.85-6.49Z"/>
  <g>
    <g>
      <path class="cls-8" d="m151.4,120.19s5.89,6.72,8.29,4.95c2.41-1.76,13.84-11.9,13.58-13.53s-4.31-9.04-5.26-8.39-16.61,16.97-16.61,16.97Z"/>
      <path class="cls-9" d="m134.5,110.1c-.52.5.77,17.51,3.71,20.71,2.95,3.2,24.68,3.6,22.47-.5-2.21-4.11-26.18-20.21-26.18-20.21Z"/>
      <path class="cls-9" d="m159.21,86.46c.52-.5,17.11,1.86,20.07,5.06,2.95,3.19,2,25.3-1.89,22.8-3.89-2.5-18.18-27.86-18.18-27.86Z"/>
      <path class="cls-2" d="m134.5,110.1c-.52.5.77,17.51,3.71,20.71,2.95,3.2,24.68,3.6,22.47-.5-2.21-4.11-26.18-20.21-26.18-20.21Z"/>
      <path class="cls-4" d="m137.07,115.73c1.95-.14,5.59,11.37,3.2,13.08-2.39,1.71-5.15-12.94-3.2-13.08Z"/>
      <path class="cls-2" d="m159.21,86.46c.52-.5,17.11,1.86,20.07,5.06,2.95,3.19,2,25.3-1.89,22.8-3.89-2.5-18.18-27.86-18.18-27.86Z"/>
      <path class="cls-10" d="m151.01,123.04s-49.23-28.56-41.35-66.03c0,0,36.31-3.57,61.94,46.75l-20.58,19.28Z"/>
      <path class="cls-2" d="m128.36,96.63c-3.44-2.99-5.58-7.32-5.4-11.92.11-2.77,1.02-5.89,3.76-8.63,6.97-6.99,15.23-3.15,18.44-.36,3.21,2.79,11,12.62.19,21.34-6.59,5.31-13.29,2.79-16.99-.43Z"/>
      <path class="cls-3" d="m128.48,78.72c10.21-11.82,24.51,4.7,16,15.11-8.06,9.85-26.21-3.29-16-15.11Z"/>
      <g class="cls-13">
        <path class="cls-6" d="m129.46,77.69l-1.04,15.57c1.28,1.38,2.87,2.47,4.6,3.18l1.32-21.55c-1.64.39-3.29,1.29-4.88,2.81Z"/>
        <path class="cls-6" d="m136.17,74.64l-.6,22.5c.9.15,1.82.19,2.72.09l.81-22.14c-.94-.31-1.92-.47-2.93-.45Z"/>
      </g>
      <path class="cls-2" d="m135.38,63.64c-14.43-7.74-25.72-6.64-25.72-6.64-2.11,10.01-.13,19.39,3.89,27.76,6.75-5.36,15.71-13.17,21.83-21.12Z"/>
      <path class="cls-2" d="m148.84,98.18c7.84-6.18,24.81,20.05,20.73,24.24-4.08,4.18-28.97-17.74-20.73-24.24Z"/>
      <path class="cls-4" d="m150.02,102.57c2.06-3.7,19.4,17.75,17.8,19.28-1.6,1.53-19.86-15.58-17.8-19.28Z"/>
    </g>
    <path class="cls-4" d="m110.48,60.49c1.74-2.4,7.5,18.64,4.92,20.91-2.57,2.28-6.66-18.52-4.92-20.91Z"/>
  </g>
</svg>